PathFileType	4	(X/Y/Z)	./resultDataOpenSim/trcMotMarkerGrf/sub10/qtm-13-03.trc
DataRate	CameraRate	NumFrames	NumMarkers	Units	OrigDataRate	OrigDataStartFrame	OrigNumFrames
250.000000	250.000000	11	24	m	250.000000	244	486
Frame#	Time	L.Toe.Tip			R.Toe.Tip			L.Ankle.Lat			R.Ankle.Lat			L.Ankle.Med			R.Ankle.Med			L.Heel			R.Heel			L.Knee.Lat			R.Knee.Lat			L.Knee.Med			R.Knee.Med			L.Thigh.Upper			R.Thigh.Upper			L.ASIS			R.ASIS			V.Sacral			L.Acromium			R.Acromium			C7			L.Elbow			R.Elbow			L.Wrist.Lat			R.Wrist.Lat
		X1	Y1	Z1	X2	Y2	Z2	X3	Y3	Z3	X4	Y4	Z4	X5	Y5	Z5	X6	Y6	Z6	X7	Y7	Z7	X8	Y8	Z8	X9	Y9	Z9	X10	Y10	Z10	X11	Y11	Z11	X12	Y12	Z12	X13	Y13	Z13	X14	Y14	Z14	X15	Y15	Z15	X16	Y16	Z16	X17	Y17	Z17	X18	Y18	Z18	X19	Y19	Z19	X20	Y20	Z20	X21	Y21	Z21	X22	Y22	Z22	X23	Y23	Z23	X24	Y24	Z24

244	0.972	-0.070153088	-0.008149093	-0.020815966	0.59668237	0.12590679	0.089596707	-0.19910657	0.024265401	-0.049463327	0.45667119	0.096435728	0.12436711	-0.18666029	0.050401732	0.035009474	0.47385484	0.13646565	0.046107916	-0.27043666	0.0061973898	-0.0045844355	0.42186077	0.061065571	0.072070958	-0.034666297	0.37118311	-0.097936047	0.32745722	0.47766872	0.15164112	-0.028023874	0.35673693	0.021873548	0.34741484	0.49264209	0.025819757	-0.0043987363	0.76798796	-0.17608419	0.0633622	0.78780335	0.19973605	0.065727645	0.87802396	-0.12547658	0.11799705	0.88648657	0.12357867	-0.10022383	0.88210884	0.037525512	0.095579111	1.3396929	-0.16085979	0.041084873	1.3701791	0.13246465	-0.0046589315	1.3769714	-0.032746968	0.089580912	1.0570652	-0.36664293	-0.14353554	1.1358187	0.3050617	0.3295887	0.9883873	-0.39877026	-0.10182514	1.1032496	0.55045777
245	0.976	-0.070148166	-0.0081692005	-0.020887558	0.6085177	0.12701787	0.087099061	-0.19889492	0.024741776	-0.049631841	0.4689811	0.09579499	0.12337208	-0.18654149	0.050914788	0.034836022	0.48508933	0.13612113	0.045043162	-0.27031197	0.0070836464	-0.0046992846	0.43428033	0.060059082	0.071328772	-0.033518414	0.37121003	-0.098360864	0.33380729	0.47496137	0.15107884	-0.026201999	0.35672089	0.021501575	0.35384526	0.48991883	0.025023543	0.00014710404	0.7676739	-0.17593026	0.071475372	0.78721084	0.19963665	0.071033011	0.87763429	-0.12606008	0.1256824	0.88634454	0.12289668	-0.093258675	0.88118907	0.038660307	0.10129847	1.3397043	-0.16084012	0.046887545	1.3699316	0.13183269	0.0010520519	1.3764117	-0.032787731	0.099075141	1.0593538	-0.36924339	-0.13957449	1.1385837	0.30610772	0.34025364	0.99336792	-0.39890867	-0.099667722	1.1089514	0.5523318
246	0.98	-0.070132088	-0.0081880795	-0.02096373	0.61969958	0.12814907	0.084912668	-0.19865691	0.025281948	-0.049792105	0.4806452	0.095133372	0.12243069	-0.18632987	0.051497046	0.034662529	0.49572804	0.13568293	0.043941169	-0.2701662	0.008060484	-0.0048268372	0.44611509	0.058985949	0.070647003	-0.03241249	0.37129892	-0.098831069	0.34023125	0.47236496	0.15049676	-0.02428977	0.3567787	0.021137124	0.36033109	0.48730721	0.024226003	0.0049111288	0.76739847	-0.17585784	0.07972729	0.78659393	0.19947986	0.076507347	0.87722607	-0.12654757	0.13340108	0.88616897	0.12213979	-0.086377185	0.88035592	0.039756819	0.10700822	1.3397386	-0.16081478	0.0526788	1.3696796	0.13121525	0.0066682356	1.3758723	-0.032564199	0.10852418	1.0617105	-0.37178395	-0.13545666	1.1412729	0.30704431	0.35082095	0.99838066	-0.39894272	-0.097417923	1.1146665	0.55412455
247	0.984	-0.070120618	-0.0082019631	-0.021019287	0.63022054	0.12923839	0.082989426	-0.19839626	0.025893492	-0.049937945	0.4916883	0.09443542	0.12153448	-0.18601082	0.052144389	0.034487967	0.50581271	0.13515273	0.042830265	-0.27000083	0.0091277604	-0.004959996	0.45737321	0.057854871	0.06999241	-0.031269003	0.3714417	-0.09928648	0.34672944	0.46986793	0.14989648	-0.022306471	0.35686798	0.020816525	0.36687053	0.48481239	0.023440585	0.0098128499	0.76711678	-0.17578664	0.088121463	0.78593815	0.19924723	0.08210196	0.87676733	-0.12697855	0.14114601	0.88594867	0.12130453	-0.079499594	0.87961837	0.040820818	0.11266842	1.3397961	-0.1607587	0.058463943	1.369424	0.13062156	0.012272293	1.3753588	-0.032305809	0.11792805	1.0641274	-0.37425674	-0.13111031	1.1437732	0.30797293	0.36128304	1.0034266	-0.39885172	-0.095081966	1.1203846	0.55583098
248	0.988	-0.070123229	-0.0082061878	-0.021035871	0.64012697	0.13019257	0.081287305	-0.19811401	0.026574884	-0.05006974	0.50214627	0.093688435	0.12067399	-0.1855929	0.052855867	0.03431343	0.51534957	0.13452734	0.041745325	-0.26981208	0.010282839	-0.0050986182	0.4680709	0.056681317	0.069334088	-0.029966495	0.3716254	-0.099636899	0.35328897	0.46745015	0.14927622	-0.02025425	0.3569568	0.020563023	0.37346483	0.48244712	0.022676266	0.014799211	0.76680391	-0.17568727	0.096655951	0.78523211	0.19894262	0.087771738	0.87622934	-0.12738606	0.14891535	0.88567553	0.12038526	-0.072577683	0.87898586	0.041858811	0.1182841	1.3398613	-0.16066439	0.064261367	1.3691674	0.13004933	0.017913964	1.3748529	-0.032157866	0.12728468	1.0665939	-0.37665103	-0.12663163	1.14612	0.30895002	0.37159361	1.0084709	-0.39866846	-0.092671259	1.1260865	0.55743423
249	0.992	-0.070131743	-0.0082016015	-0.021029736	0.64950743	0.13091267	0.079748798	-0.19780886	0.027324832	-0.050182193	0.51205132	0.092885687	0.11983534	-0.18504157	0.053633357	0.034139348	0.52438757	0.13381648	0.040688889	-0.2695877	0.011524324	-0.0052491937	0.47822154	0.055475368	0.068660708	-0.028461418	0.37185245	-0.099870402	0.35988693	0.46510423	0.14864097	-0.018104201	0.35703057	0.020362307	0.38011352	0.48023956	0.021930796	0.01984051	0.7664547	-0.17555427	0.10531619	0.78446585	0.19858579	0.093508836	0.87561152	-0.12778272	0.15669091	0.88534636	0.1193725	-0.065599124	0.87845834	0.042856578	0.1239033	1.3399197	-0.16054748	0.070087888	1.3689128	0.12949253	0.023594652	1.3743407	-0.032120912	0.1365883	1.069102	-0.37895747	-0.12214294	1.1484144	0.30995172	0.38171577	1.0134631	-0.39844615	-0.090207696	1.1317457	0.55891171
250	0.996	-0.070129027	-0.0081929636	-0.021032013	0.65843186	0.13134238	0.078290251	-0.19747803	0.028150803	-0.050265083	0.52143001	0.092024352	0.11899984	-0.18429452	0.054480144	0.033973084	0.5329939	0.1330211	0.039652943	-0.26930972	0.012858358	-0.0054111893	0.48781433	0.054240829	0.0679785	-0.026851592	0.37213796	-0.10009357	0.36649861	0.46284441	0.148001	-0.015807321	0.3570731	0.020169139	0.38679954	0.47823227	0.021206259	0.024919427	0.76607368	-0.17540096	0.11408096	0.78363422	0.19819968	0.099316171	0.87492982	-0.12817425	0.16443854	0.88495839	0.11825054	-0.058568225	0.8780198	0.043800266	0.12956935	1.3399734	-0.16043091	0.07593897	1.3686647	0.12895301	0.029302511	1.373821	-0.032129802	0.14583157	1.0716475	-0.38116543	-0.11769159	1.1507149	0.3109336	0.39166333	1.0183705	-0.39821347	-0.087705528	1.137348	0.5602525
251	1	-0.07010517	-0.0081794551	-0.021047056	0.66691824	0.13148035	0.076894877	-0.19711982	0.029062223	-0.050310735	0.53029887	0.09110294	0.11815293	-0.18334733	0.055413497	0.033844347	0.54118318	0.13211313	0.038639278	-0.2689709	0.014309148	-0.0055477117	0.49682187	0.052982334	0.067303894	-0.025267115	0.37248075	-0.1004222	0.37310001	0.46068843	0.14736619	-0.013331048	0.35706306	0.019942397	0.39348393	0.47646313	0.020525801	0.030024385	0.76566497	-0.17524456	0.12293383	0.78273479	0.19780205	0.10519609	0.87420172	-0.12855847	0.17214761	0.88450514	0.11700549	-0.051484885	0.87764389	0.044720834	0.1352877	1.3400411	-0.16032601	0.081788607	1.3684328	0.12844405	0.035036145	1.3732989	-0.032127956	0.15500885	1.0742273	-0.38326523	-0.11325971	1.1530135	0.311879	0.40146904	1.023182	-0.3979821	-0.085145159	1.1429105	0.56147849
252	1.004	-0.070059486	-0.0081563021	-0.021059865	0.67497734	0.13131043	0.075723133	-0.19673469	0.030059148	-0.05031441	0.5386535	0.090120849	0.11729547	-0.18228317	0.056453476	0.033792568	0.54893734	0.13106499	0.037649525	-0.26859301	0.015912094	-0.0055675377	0.50524153	0.051695578	0.066658658	-0.023700406	0.37284812	-0.10085436	0.3796702	0.45864291	0.14674721	-0.010699844	0.35699429	0.019657088	0.40012368	0.47494035	0.019920922	0.03514757	0.76523309	-0.17508393	0.13187201	0.78177079	0.19740505	0.11115589	0.87344049	-0.12892578	0.17985544	0.88398111	0.1156503	-0.044337809	0.87730485	0.04568141	0.14103695	1.3401439	-0.16022273	0.087613515	1.3682281	0.1279824	0.040805147	1.3727774	-0.032095733	0.16411456	1.0768424	-0.38525621	-0.10881373	1.1552785	0.31279583	0.41112917	1.0278922	-0.39777419	-0.082484198	1.1484627	0.56262911
253	1.008	-0.069999306	-0.0081252718	-0.021066824	0.68264998	0.13077015	0.074983841	-0.19631935	0.031137695	-0.050279172	0.54648129	0.089070369	0.1164358	-0.1812192	0.057589507	0.033829127	0.55626764	0.12987966	0.03667972	-0.26821342	0.017683039	-0.0053792642	0.51311455	0.050359412	0.0660342	-0.022004061	0.37319222	-0.10129065	0.38619583	0.45670897	0.14614987	-0.0080026457	0.35688765	0.019288243	0.40669035	0.47363423	0.019402721	0.040283955	0.76479049	-0.1749123	0.14090497	0.78075932	0.197012	0.11720144	0.87265616	-0.12927198	0.18761879	0.88339085	0.11424011	-0.03711468	0.87698652	0.046714569	0.14679037	1.340289	-0.16009793	0.093416761	1.3680615	0.12757946	0.046626432	1.3722507	-0.032035128	0.17314053	1.0794945	-0.38714497	-0.10433358	1.1574953	0.31369227	0.42060066	1.0324897	-0.39762361	-0.079698455	1.1540057	0.56371652
254	1.012	-0.069939064	-0.0080944825	-0.021074382	0.68995817	0.12983869	0.074630375	-0.19585938	0.032303174	-0.050229013	0.55378879	0.087934116	0.1155723	-0.18023209	0.058787422	0.033927006	0.56322979	0.12857601	0.035708478	-0.2678378	0.019598509	-0.0050010117	0.5204992	0.048958219	0.065357054	-0.020039206	0.37347732	-0.10165179	0.39267264	0.45488697	0.14557017	-0.0053206287	0.3567705	0.018819745	0.41317453	0.47248969	0.018945067	0.045434035	0.76435664	-0.17473786	0.15003904	0.77972639	0.19661737	0.12332697	0.87185862	-0.12960273	0.19546402	0.8827461	0.11283641	-0.029810694	0.87668581	0.047806386	0.15252895	1.3404677	-0.15993856	0.099215708	1.3679438	0.12723799	0.052523845	1.3716988	-0.031932728	0.18207952	1.0821745	-0.38893356	-0.099796648	1.1596676	0.31455975	0.42985511	1.036971	-0.39754094	-0.07680702	1.1595078	0.56472294
